<?xml version="1.0" encoding="utf-8"?>
<svg xmlns="http://www.w3.org/2000/svg" xmlns:xlink="http://www.w3.org/1999/xlink" width="600" height="400" viewBox="0 0 2400 1600">
<defs>
  <clipPath id="clip990">
    <rect x="0" y="0" width="2400" height="1600"/>
  </clipPath>
</defs>
<path clip-path="url(#clip990)" d="
M0 1600 L2400 1600 L2400 0 L0 0  Z
  " fill="#ffffff" fill-rule="evenodd" fill-opacity="1"/>
<defs>
  <clipPath id="clip991">
    <rect x="480" y="0" width="1681" height="1600"/>
  </clipPath>
</defs>
<defs>
  <clipPath id="clip992">
    <rect x="252" y="47" width="2101" height="1365"/>
  </clipPath>
</defs>
<path clip-path="url(#clip990)" d="
M252.764 1410.9 L2352.76 1410.9 L2352.76 47.2441 L252.764 47.2441  Z
  " fill="#ffffff" fill-rule="evenodd" fill-opacity="1"/>
<polyline clip-path="url(#clip992)" style="stroke:#000000; stroke-linecap:butt; stroke-linejoin:round; stroke-width:2; stroke-opacity:0.1; fill:none" points="
  1255.26,1410.9 1255.26,47.2441 
  "/>
<polyline clip-path="url(#clip992)" style="stroke:#000000; stroke-linecap:butt; stroke-linejoin:round; stroke-width:2; stroke-opacity:0.1; fill:none" points="
  2293.32,1410.9 2293.32,47.2441 
  "/>
<polyline clip-path="url(#clip990)" style="stroke:#000000; stroke-linecap:butt; stroke-linejoin:round; stroke-width:4; stroke-opacity:1; fill:none" points="
  252.764,1410.9 2352.76,1410.9 
  "/>
<polyline clip-path="url(#clip990)" style="stroke:#000000; stroke-linecap:butt; stroke-linejoin:round; stroke-width:4; stroke-opacity:1; fill:none" points="
  1255.26,1410.9 1255.26,1392 
  "/>
<polyline clip-path="url(#clip990)" style="stroke:#000000; stroke-linecap:butt; stroke-linejoin:round; stroke-width:4; stroke-opacity:1; fill:none" points="
  2293.32,1410.9 2293.32,1392 
  "/>
<path clip-path="url(#clip990)" d="M1174.65 1485.02 L1182.29 1485.02 L1182.29 1458.66 L1173.98 1460.32 L1173.98 1456.06 L1182.25 1454.4 L1186.92 1454.4 L1186.92 1485.02 L1194.56 1485.02 L1194.56 1488.96 L1174.65 1488.96 L1174.65 1485.02 Z" fill="#000000" fill-rule="evenodd" fill-opacity="1" /><path clip-path="url(#clip990)" d="M1214.01 1457.48 Q1210.39 1457.48 1208.57 1461.04 Q1206.76 1464.58 1206.76 1471.71 Q1206.76 1478.82 1208.57 1482.38 Q1210.39 1485.92 1214.01 1485.92 Q1217.64 1485.92 1219.45 1482.38 Q1221.27 1478.82 1221.27 1471.71 Q1221.27 1464.58 1219.45 1461.04 Q1217.64 1457.48 1214.01 1457.48 M1214.01 1453.77 Q1219.82 1453.77 1222.87 1458.38 Q1225.95 1462.96 1225.95 1471.71 Q1225.95 1480.44 1222.87 1485.04 Q1219.82 1489.63 1214.01 1489.63 Q1208.2 1489.63 1205.12 1485.04 Q1202.06 1480.44 1202.06 1471.71 Q1202.06 1462.96 1205.12 1458.38 Q1208.2 1453.77 1214.01 1453.77 Z" fill="#000000" fill-rule="evenodd" fill-opacity="1" /><path clip-path="url(#clip990)" d="M1225.95 1447.87 L1250.06 1447.87 L1250.06 1451.07 L1225.95 1451.07 L1225.95 1447.87 Z" fill="#000000" fill-rule="evenodd" fill-opacity="1" /><path clip-path="url(#clip990)" d="M1258.92 1458.35 L1265.13 1458.35 L1265.13 1436.93 L1258.37 1438.28 L1258.37 1434.82 L1265.09 1433.47 L1268.89 1433.47 L1268.89 1458.35 L1275.09 1458.35 L1275.09 1461.55 L1258.92 1461.55 L1258.92 1458.35 Z" fill="#000000" fill-rule="evenodd" fill-opacity="1" /><path clip-path="url(#clip990)" d="M1282.77 1456.77 L1286.74 1456.77 L1286.74 1461.55 L1282.77 1461.55 L1282.77 1456.77 Z" fill="#000000" fill-rule="evenodd" fill-opacity="1" /><path clip-path="url(#clip990)" d="M1298.28 1458.35 L1311.54 1458.35 L1311.54 1461.55 L1293.71 1461.55 L1293.71 1458.35 Q1295.88 1456.11 1299.6 1452.35 Q1303.34 1448.57 1304.3 1447.48 Q1306.13 1445.43 1306.84 1444.02 Q1307.58 1442.59 1307.58 1441.22 Q1307.58 1438.98 1306 1437.57 Q1304.43 1436.16 1301.91 1436.16 Q1300.13 1436.16 1298.13 1436.78 Q1296.16 1437.4 1293.9 1438.66 L1293.9 1434.82 Q1296.2 1433.9 1298.19 1433.43 Q1300.18 1432.96 1301.84 1432.96 Q1306.2 1432.96 1308.8 1435.14 Q1311.39 1437.32 1311.39 1440.97 Q1311.39 1442.7 1310.74 1444.26 Q1310.1 1445.8 1308.38 1447.91 Q1307.91 1448.46 1305.39 1451.07 Q1302.87 1453.67 1298.28 1458.35 Z" fill="#000000" fill-rule="evenodd" fill-opacity="1" /><path clip-path="url(#clip990)" d="M1319.56 1433.47 L1334.47 1433.47 L1334.47 1436.66 L1323.04 1436.66 L1323.04 1443.55 Q1323.86 1443.27 1324.69 1443.13 Q1325.52 1442.98 1326.35 1442.98 Q1331.05 1442.98 1333.79 1445.56 Q1336.54 1448.14 1336.54 1452.54 Q1336.54 1457.07 1333.72 1459.59 Q1330.9 1462.09 1325.76 1462.09 Q1323.99 1462.09 1322.15 1461.79 Q1320.33 1461.49 1318.37 1460.89 L1318.37 1457.07 Q1320.06 1457.99 1321.87 1458.44 Q1323.67 1458.89 1325.69 1458.89 Q1328.94 1458.89 1330.84 1457.18 Q1332.74 1455.47 1332.74 1452.54 Q1332.74 1449.6 1330.84 1447.89 Q1328.94 1446.18 1325.69 1446.18 Q1324.16 1446.18 1322.64 1446.52 Q1321.14 1446.86 1319.56 1447.57 L1319.56 1433.47 Z" fill="#000000" fill-rule="evenodd" fill-opacity="1" /><path clip-path="url(#clip990)" d="M2212.31 1485.02 L2219.95 1485.02 L2219.95 1458.66 L2211.64 1460.32 L2211.64 1456.06 L2219.9 1454.4 L2224.58 1454.4 L2224.58 1485.02 L2232.22 1485.02 L2232.22 1488.96 L2212.31 1488.96 L2212.31 1485.02 Z" fill="#000000" fill-rule="evenodd" fill-opacity="1" /><path clip-path="url(#clip990)" d="M2251.66 1457.48 Q2248.05 1457.48 2246.22 1461.04 Q2244.42 1464.58 2244.42 1471.71 Q2244.42 1478.82 2246.22 1482.38 Q2248.05 1485.92 2251.66 1485.92 Q2255.3 1485.92 2257.1 1482.38 Q2258.93 1478.82 2258.93 1471.71 Q2258.93 1464.58 2257.1 1461.04 Q2255.3 1457.48 2251.66 1457.48 M2251.66 1453.77 Q2257.47 1453.77 2260.53 1458.38 Q2263.61 1462.96 2263.61 1471.71 Q2263.61 1480.44 2260.53 1485.04 Q2257.47 1489.63 2251.66 1489.63 Q2245.85 1489.63 2242.77 1485.04 Q2239.72 1480.44 2239.72 1471.71 Q2239.72 1462.96 2242.77 1458.38 Q2245.85 1453.77 2251.66 1453.77 Z" fill="#000000" fill-rule="evenodd" fill-opacity="1" /><path clip-path="url(#clip990)" d="M2263.61 1447.87 L2287.72 1447.87 L2287.72 1451.07 L2263.61 1451.07 L2263.61 1447.87 Z" fill="#000000" fill-rule="evenodd" fill-opacity="1" /><path clip-path="url(#clip990)" d="M2296.58 1458.35 L2302.78 1458.35 L2302.78 1436.93 L2296.03 1438.28 L2296.03 1434.82 L2302.75 1433.47 L2306.54 1433.47 L2306.54 1458.35 L2312.75 1458.35 L2312.75 1461.55 L2296.58 1461.55 L2296.58 1458.35 Z" fill="#000000" fill-rule="evenodd" fill-opacity="1" /><path clip-path="url(#clip990)" d="M2320.42 1456.77 L2324.39 1456.77 L2324.39 1461.55 L2320.42 1461.55 L2320.42 1456.77 Z" fill="#000000" fill-rule="evenodd" fill-opacity="1" /><path clip-path="url(#clip990)" d="M2340.79 1435.97 Q2337.86 1435.97 2336.37 1438.86 Q2334.91 1441.74 2334.91 1447.53 Q2334.91 1453.31 2336.37 1456.2 Q2337.86 1459.08 2340.79 1459.08 Q2343.75 1459.08 2345.21 1456.2 Q2346.7 1453.31 2346.7 1447.53 Q2346.7 1441.74 2345.21 1438.86 Q2343.75 1435.97 2340.79 1435.97 M2340.79 1432.96 Q2345.51 1432.96 2348 1436.7 Q2350.5 1440.43 2350.5 1447.53 Q2350.5 1454.62 2348 1458.37 Q2345.51 1462.09 2340.79 1462.09 Q2336.07 1462.09 2333.57 1458.37 Q2331.09 1454.62 2331.09 1447.53 Q2331.09 1440.43 2333.57 1436.7 Q2336.07 1432.96 2340.79 1432.96 Z" fill="#000000" fill-rule="evenodd" fill-opacity="1" /><path clip-path="url(#clip990)" d="M2365.3 1435.97 Q2362.37 1435.97 2360.88 1438.86 Q2359.41 1441.74 2359.41 1447.53 Q2359.41 1453.31 2360.88 1456.2 Q2362.37 1459.08 2365.3 1459.08 Q2368.25 1459.08 2369.72 1456.2 Q2371.21 1453.31 2371.21 1447.53 Q2371.21 1441.74 2369.72 1438.86 Q2368.25 1435.97 2365.3 1435.97 M2365.3 1432.96 Q2370.02 1432.96 2372.5 1436.7 Q2375.01 1440.43 2375.01 1447.53 Q2375.01 1454.62 2372.5 1458.37 Q2370.02 1462.09 2365.3 1462.09 Q2360.58 1462.09 2358.08 1458.37 Q2355.6 1454.62 2355.6 1447.53 Q2355.6 1440.43 2358.08 1436.7 Q2360.58 1432.96 2365.3 1432.96 Z" fill="#000000" fill-rule="evenodd" fill-opacity="1" /><path clip-path="url(#clip990)" d="M1316.32 1575.17 Q1316.32 1575.42 1316.03 1576.42 Q1315.74 1577.42 1315.03 1578.97 Q1314.36 1580.51 1313.42 1581.93 Q1312.49 1583.31 1310.94 1584.34 Q1309.43 1585.34 1307.69 1585.34 Q1305.37 1585.34 1303.83 1583.8 Q1302.28 1582.25 1302.28 1579.93 Q1302.28 1579.61 1302.31 1579.29 Q1302.35 1578.97 1302.38 1578.77 Q1302.41 1578.55 1302.51 1578.19 Q1302.64 1577.81 1302.67 1577.65 Q1302.73 1577.48 1302.89 1577 Q1303.09 1576.49 1303.15 1576.29 Q1307.24 1565.86 1307.24 1561.51 Q1307.24 1556.91 1303.67 1556.91 Q1300.48 1556.91 1297.32 1559.22 Q1295.87 1560.38 1294.49 1562.44 Q1293.1 1564.51 1292.84 1565.28 Q1292.55 1566.95 1292.14 1568.24 Q1291.94 1569.14 1291.01 1572.65 L1289.56 1578.61 L1288.3 1583.6 Q1288.05 1584.31 1287.34 1584.83 Q1286.63 1585.34 1285.86 1585.34 Q1285.21 1585.34 1284.57 1584.89 Q1283.96 1584.47 1283.96 1583.48 Q1283.96 1582.96 1284.21 1582.03 L1293.78 1544.02 L1293.97 1542.73 Q1293.97 1542.35 1293.81 1542.15 Q1293.68 1541.93 1292.91 1541.77 Q1292.17 1541.61 1290.69 1541.61 Q1290.07 1541.61 1289.79 1541.58 Q1289.53 1541.54 1289.3 1541.38 Q1289.08 1541.19 1289.08 1540.8 Q1289.08 1540.25 1289.3 1539.96 Q1289.56 1539.64 1289.75 1539.58 Q1289.95 1539.51 1290.33 1539.48 Q1290.88 1539.45 1292.72 1539.29 Q1294.55 1539.1 1296.13 1538.97 Q1297.71 1538.84 1298.38 1538.84 Q1298.77 1538.84 1298.96 1539.03 Q1299.19 1539.19 1299.22 1539.39 L1299.25 1539.55 L1294.1 1560.51 Q1298.19 1555.46 1303.86 1555.46 Q1307.53 1555.46 1309.5 1557.36 Q1311.46 1559.22 1311.46 1562.51 Q1311.46 1566.28 1307.43 1577 Q1306.24 1580 1306.24 1581.7 Q1306.24 1582.83 1306.6 1583.35 Q1306.98 1583.86 1307.82 1583.86 Q1309.11 1583.86 1310.24 1583.12 Q1311.4 1582.35 1312.2 1581.09 Q1313.01 1579.8 1313.55 1578.52 Q1314.13 1577.19 1314.55 1575.71 Q1314.81 1574.91 1314.94 1574.72 Q1315.1 1574.52 1315.55 1574.52 Q1316.32 1574.52 1316.32 1575.17 Z" fill="#000000" fill-rule="evenodd" fill-opacity="1" /><polyline clip-path="url(#clip992)" style="stroke:#000000; stroke-linecap:butt; stroke-linejoin:round; stroke-width:2; stroke-opacity:0.1; fill:none" points="
  252.764,979.345 2352.76,979.345 
  "/>
<polyline clip-path="url(#clip992)" style="stroke:#000000; stroke-linecap:butt; stroke-linejoin:round; stroke-width:2; stroke-opacity:0.1; fill:none" points="
  252.764,490.684 2352.76,490.684 
  "/>
<polyline clip-path="url(#clip990)" style="stroke:#000000; stroke-linecap:butt; stroke-linejoin:round; stroke-width:4; stroke-opacity:1; fill:none" points="
  252.764,1410.9 252.764,47.2441 
  "/>
<polyline clip-path="url(#clip990)" style="stroke:#000000; stroke-linecap:butt; stroke-linejoin:round; stroke-width:4; stroke-opacity:1; fill:none" points="
  252.764,979.345 271.662,979.345 
  "/>
<polyline clip-path="url(#clip990)" style="stroke:#000000; stroke-linecap:butt; stroke-linejoin:round; stroke-width:4; stroke-opacity:1; fill:none" points="
  252.764,490.684 271.662,490.684 
  "/>
<path clip-path="url(#clip990)" d="M116.135 999.137 L123.774 999.137 L123.774 972.772 L115.464 974.438 L115.464 970.179 L123.728 968.513 L128.404 968.513 L128.404 999.137 L136.042 999.137 L136.042 1003.07 L116.135 1003.07 L116.135 999.137 Z" fill="#000000" fill-rule="evenodd" fill-opacity="1" /><path clip-path="url(#clip990)" d="M155.487 971.591 Q151.876 971.591 150.047 975.156 Q148.241 978.698 148.241 985.827 Q148.241 992.934 150.047 996.499 Q151.876 1000.04 155.487 1000.04 Q159.121 1000.04 160.927 996.499 Q162.755 992.934 162.755 985.827 Q162.755 978.698 160.927 975.156 Q159.121 971.591 155.487 971.591 M155.487 967.888 Q161.297 967.888 164.352 972.494 Q167.431 977.077 167.431 985.827 Q167.431 994.554 164.352 999.161 Q161.297 1003.74 155.487 1003.74 Q149.677 1003.74 146.598 999.161 Q143.542 994.554 143.542 985.827 Q143.542 977.077 146.598 972.494 Q149.677 967.888 155.487 967.888 Z" fill="#000000" fill-rule="evenodd" fill-opacity="1" /><path clip-path="url(#clip990)" d="M167.431 961.989 L191.543 961.989 L191.543 965.186 L167.431 965.186 L167.431 961.989 Z" fill="#000000" fill-rule="evenodd" fill-opacity="1" /><path clip-path="url(#clip990)" d="M199.781 947.582 L214.695 947.582 L214.695 950.78 L203.26 950.78 L203.26 957.663 Q204.088 957.381 204.915 957.249 Q205.743 957.099 206.57 957.099 Q211.272 957.099 214.018 959.676 Q216.764 962.252 216.764 966.653 Q216.764 971.186 213.943 973.706 Q211.122 976.208 205.987 976.208 Q204.219 976.208 202.376 975.907 Q200.552 975.606 198.596 975.004 L198.596 971.186 Q200.288 972.108 202.094 972.559 Q203.899 973.01 205.912 973.01 Q209.166 973.01 211.065 971.299 Q212.965 969.587 212.965 966.653 Q212.965 963.719 211.065 962.008 Q209.166 960.296 205.912 960.296 Q204.388 960.296 202.865 960.635 Q201.36 960.973 199.781 961.688 L199.781 947.582 Z" fill="#000000" fill-rule="evenodd" fill-opacity="1" /><path clip-path="url(#clip990)" d="M114.931 510.476 L122.57 510.476 L122.57 484.111 L114.26 485.777 L114.26 481.518 L122.524 479.851 L127.2 479.851 L127.2 510.476 L134.839 510.476 L134.839 514.411 L114.931 514.411 L114.931 510.476 Z" fill="#000000" fill-rule="evenodd" fill-opacity="1" /><path clip-path="url(#clip990)" d="M154.283 482.93 Q150.672 482.93 148.843 486.495 Q147.038 490.036 147.038 497.166 Q147.038 504.272 148.843 507.837 Q150.672 511.379 154.283 511.379 Q157.917 511.379 159.723 507.837 Q161.552 504.272 161.552 497.166 Q161.552 490.036 159.723 486.495 Q157.917 482.93 154.283 482.93 M154.283 479.226 Q160.093 479.226 163.149 483.833 Q166.227 488.416 166.227 497.166 Q166.227 505.893 163.149 510.499 Q160.093 515.083 154.283 515.083 Q148.473 515.083 145.394 510.499 Q142.339 505.893 142.339 497.166 Q142.339 488.416 145.394 483.833 Q148.473 479.226 154.283 479.226 Z" fill="#000000" fill-rule="evenodd" fill-opacity="1" /><path clip-path="url(#clip990)" d="M166.227 473.328 L190.339 473.328 L190.339 476.525 L166.227 476.525 L166.227 473.328 Z" fill="#000000" fill-rule="evenodd" fill-opacity="1" /><path clip-path="url(#clip990)" d="M208.978 462.231 L199.386 477.221 L208.978 477.221 L208.978 462.231 M207.981 458.921 L212.758 458.921 L212.758 477.221 L216.764 477.221 L216.764 480.381 L212.758 480.381 L212.758 487.001 L208.978 487.001 L208.978 480.381 L196.301 480.381 L196.301 476.713 L207.981 458.921 Z" fill="#000000" fill-rule="evenodd" fill-opacity="1" /><path clip-path="url(#clip990)" d="M82.9205 802.078 L21.5039 802.078 Q19.0563 802.078 19.0563 800.757 Q19.0563 799.437 21.0209 799.437 L82.4374 799.437 Q84.8851 799.437 84.8851 800.757 Q84.8851 802.078 82.9205 802.078 Z" fill="#000000" fill-rule="evenodd" fill-opacity="1" /><path clip-path="url(#clip990)" d="M82.9205 784.356 L21.5039 784.356 Q19.0563 784.356 19.0563 783.036 Q19.0563 781.715 21.0209 781.715 L82.4374 781.715 Q84.8851 781.715 84.8851 783.036 Q84.8851 784.356 82.9205 784.356 Z" fill="#000000" fill-rule="evenodd" fill-opacity="1" /><path clip-path="url(#clip990)" d="M60.8273 746.298 Q61.1172 746.041 61.407 746.041 Q61.6969 746.041 62.5342 746.685 Q63.3716 747.297 64.4988 748.617 Q65.626 749.938 66.6888 751.645 Q67.7516 753.352 68.4601 755.864 Q69.2008 758.376 69.2008 761.017 Q69.2008 765.751 65.8192 768.585 Q62.4376 771.387 57.2525 771.387 Q53.9353 771.387 51.0045 770.292 Q48.0416 769.197 45.9482 767.425 Q43.8548 765.622 42.3411 763.368 Q40.7953 761.081 40.0545 758.698 Q39.3138 756.314 39.3138 754.092 Q39.3138 750.839 40.9563 748.939 Q42.5988 747.039 44.9176 747.039 Q45.4651 747.039 46.1414 747.2 Q46.8178 747.329 47.8805 747.78 Q48.9433 748.199 50.0061 749.294 Q51.0367 750.389 51.713 751.999 Q53.2267 755.574 53.2267 762.079 L53.2267 765.59 Q57.3813 766.62 60.0866 766.62 Q61.1494 766.62 62.2444 766.427 Q63.3072 766.234 64.6598 765.719 Q66.0124 765.171 66.882 763.947 Q67.7194 762.691 67.7194 760.888 Q67.7194 760.308 67.6872 759.696 Q67.6549 759.052 67.3007 757.442 Q66.9464 755.799 66.3345 754.35 Q65.7226 752.901 64.4022 751.065 Q63.0495 749.197 61.2138 747.715 Q60.5375 747.2 60.5375 746.846 Q60.5375 746.556 60.8273 746.298 M44.9176 749.229 Q43.1463 749.229 41.9547 750.55 Q40.7631 751.838 40.7631 754.092 Q40.7631 754.801 40.9241 755.67 Q41.0851 756.54 41.7614 757.989 Q42.4378 759.406 43.565 760.662 Q44.66 761.918 46.8178 763.174 Q48.9433 764.43 51.7775 765.171 L51.7775 762.466 Q51.7775 761.532 51.7775 760.855 Q51.7453 760.179 51.6164 758.698 Q51.4876 757.184 51.2622 756.089 Q51.0045 754.994 50.4892 753.609 Q49.9739 752.224 49.2976 751.355 Q48.5891 750.453 47.4619 749.841 Q46.3347 749.229 44.9176 749.229 Z" fill="#000000" fill-rule="evenodd" fill-opacity="1" /><path clip-path="url(#clip990)" d="M82.9205 736.204 L21.5039 736.204 Q19.0563 736.204 19.0563 734.883 Q19.0563 733.563 21.0209 733.563 L82.4374 733.563 Q84.8851 733.563 84.8851 734.883 Q84.8851 736.204 82.9205 736.204 Z" fill="#000000" fill-rule="evenodd" fill-opacity="1" /><path clip-path="url(#clip990)" d="M82.9205 718.482 L21.5039 718.482 Q19.0563 718.482 19.0563 717.162 Q19.0563 715.841 21.0209 715.841 L82.4374 715.841 Q84.8851 715.841 84.8851 717.162 Q84.8851 718.482 82.9205 718.482 Z" fill="#000000" fill-rule="evenodd" fill-opacity="1" /><path clip-path="url(#clip990)" d="M70.6231 667.893 Q73.3735 667.893 75.7632 668.975 Q78.1303 670.035 79.6182 672.109 Q81.1061 674.16 81.1061 676.753 Q81.1061 680.765 77.9048 684.598 Q77.2511 685.364 76.6424 685.906 Q76.0337 686.447 73.2382 688.746 Q73.892 689.129 74.5007 689.535 Q75.0868 689.941 76.4169 691.091 Q77.747 692.24 78.6713 693.435 Q79.5957 694.608 80.3622 696.434 Q81.1061 698.237 81.1061 700.108 Q81.1061 702.092 80.2043 703.783 Q79.28 705.451 77.8147 706.556 Q76.3268 707.638 74.4781 708.247 Q72.607 708.833 70.6682 708.833 Q67.9178 708.833 65.5507 707.773 Q63.161 706.691 61.6731 704.64 Q60.1852 702.566 60.1852 699.973 Q60.1852 695.938 63.3639 692.128 Q64.0177 691.361 64.6264 690.82 Q65.2351 690.279 68.0305 687.98 Q67.5346 687.687 67.0837 687.371 Q66.6103 687.055 65.5732 686.266 Q64.5362 685.477 63.7021 684.553 Q62.8679 683.606 62.0113 682.411 Q61.1546 681.216 60.6812 679.706 Q60.1852 678.195 60.1852 676.617 Q60.1852 674.634 61.1095 672.965 Q62.0113 671.274 63.4992 670.192 Q64.9645 669.088 66.8357 668.502 Q68.6843 667.893 70.6231 667.893 M70.6231 668.907 Q69.0225 668.907 67.4669 669.381 Q65.9114 669.854 64.6038 670.756 Q63.2737 671.635 62.4621 673.078 Q61.6505 674.521 61.6505 676.279 Q61.6505 678.128 62.4396 679.841 Q63.2061 681.532 64.5136 682.862 Q65.8212 684.17 67.0386 685.071 Q68.256 685.973 69.6537 686.762 Q70.1497 686.356 72.4492 684.621 Q74.7487 682.862 75.5603 682.118 Q78.8742 679.075 78.8742 676.009 Q78.8742 673.078 76.4846 671.004 Q74.0723 668.907 70.6231 668.907 M71.6376 689.963 Q71.1642 690.347 68.8647 692.128 Q66.5426 693.886 65.731 694.63 Q62.3945 697.696 62.3945 700.717 Q62.3945 703.648 64.8067 705.744 Q67.2189 707.818 70.6682 707.818 Q72.2688 707.818 73.8244 707.345 Q75.3799 706.872 76.6875 705.992 Q77.995 705.091 78.8066 703.648 Q79.6182 702.205 79.6182 700.447 Q79.6182 698.959 79.0771 697.538 Q78.5361 696.095 77.7245 695.013 Q76.9129 693.931 75.7857 692.917 Q74.6585 691.902 73.6891 691.249 Q72.7197 690.572 71.6376 689.963 Z" fill="#000000" fill-rule="evenodd" fill-opacity="1" /><polyline clip-path="url(#clip992)" style="stroke:#009af9; stroke-linecap:butt; stroke-linejoin:round; stroke-width:4; stroke-opacity:1; fill:none" stroke-dasharray="16, 10" points="
  2293.32,129.04 1562.15,435.809 1043.37,569.025 640.978,620.921 312.198,684.153 
  "/>
<path clip-path="url(#clip992)" d="M2277.32 113.04 L2277.32 145.04 L2309.32 145.04 L2309.32 113.04 L2277.32 113.04 Z" fill="#e26f46" fill-rule="evenodd" fill-opacity="1" stroke="#000000" stroke-opacity="1" stroke-width="3.2"/>
<path clip-path="url(#clip992)" d="M1546.15 419.809 L1546.15 451.809 L1578.15 451.809 L1578.15 419.809 L1546.15 419.809 Z" fill="#e26f46" fill-rule="evenodd" fill-opacity="1" stroke="#000000" stroke-opacity="1" stroke-width="3.2"/>
<path clip-path="url(#clip992)" d="M1027.37 553.025 L1027.37 585.025 L1059.37 585.025 L1059.37 553.025 L1027.37 553.025 Z" fill="#e26f46" fill-rule="evenodd" fill-opacity="1" stroke="#000000" stroke-opacity="1" stroke-width="3.2"/>
<path clip-path="url(#clip992)" d="M624.978 604.921 L624.978 636.921 L656.978 636.921 L656.978 604.921 L624.978 604.921 Z" fill="#e26f46" fill-rule="evenodd" fill-opacity="1" stroke="#000000" stroke-opacity="1" stroke-width="3.2"/>
<path clip-path="url(#clip992)" d="M296.198 668.153 L296.198 700.153 L328.198 700.153 L328.198 668.153 L296.198 668.153 Z" fill="#e26f46" fill-rule="evenodd" fill-opacity="1" stroke="#000000" stroke-opacity="1" stroke-width="3.2"/>
<polyline clip-path="url(#clip992)" style="stroke:#3da44d; stroke-linecap:butt; stroke-linejoin:round; stroke-width:4; stroke-opacity:1; fill:none" points="
  2293.32,325.543 1562.15,657.751 1043.37,899.265 640.978,1089.99 312.198,1250.42 
  "/>
<path clip-path="url(#clip992)" d="M2277.32 309.543 L2277.32 341.543 L2309.32 341.543 L2309.32 309.543 L2277.32 309.543 Z" fill="#c271d2" fill-rule="evenodd" fill-opacity="1" stroke="#000000" stroke-opacity="1" stroke-width="3.2"/>
<path clip-path="url(#clip992)" d="M1546.15 641.751 L1546.15 673.751 L1578.15 673.751 L1578.15 641.751 L1546.15 641.751 Z" fill="#c271d2" fill-rule="evenodd" fill-opacity="1" stroke="#000000" stroke-opacity="1" stroke-width="3.2"/>
<path clip-path="url(#clip992)" d="M1027.37 883.265 L1027.37 915.265 L1059.37 915.265 L1059.37 883.265 L1027.37 883.265 Z" fill="#c271d2" fill-rule="evenodd" fill-opacity="1" stroke="#000000" stroke-opacity="1" stroke-width="3.2"/>
<path clip-path="url(#clip992)" d="M624.978 1073.99 L624.978 1105.99 L656.978 1105.99 L656.978 1073.99 L624.978 1073.99 Z" fill="#c271d2" fill-rule="evenodd" fill-opacity="1" stroke="#000000" stroke-opacity="1" stroke-width="3.2"/>
<path clip-path="url(#clip992)" d="M296.198 1234.42 L296.198 1266.42 L328.198 1266.42 L328.198 1234.42 L296.198 1234.42 Z" fill="#c271d2" fill-rule="evenodd" fill-opacity="1" stroke="#000000" stroke-opacity="1" stroke-width="3.2"/>
<polyline clip-path="url(#clip992)" style="stroke:#ac8d18; stroke-linecap:butt; stroke-linejoin:round; stroke-width:4; stroke-opacity:1; fill:none" stroke-dasharray="16, 10" points="
  2293.32,85.838 1562.15,393.625 1043.37,571.816 640.978,622.361 312.198,685.516 
  "/>
<path clip-path="url(#clip992)" d="M2293.32 69.838 L2289.56 80.654 L2278.11 80.894 L2287.24 87.822 L2283.91 98.782 L2293.32 92.238 L2302.73 98.782 L2299.4 87.822 L2308.54 80.894 L2297.08 80.654 L2293.32 69.838 Z" fill="#00a9ad" fill-rule="evenodd" fill-opacity="1" stroke="#000000" stroke-opacity="1" stroke-width="3.2"/>
<path clip-path="url(#clip992)" d="M1562.15 377.625 L1558.39 388.441 L1546.93 388.681 L1556.07 395.609 L1552.74 406.569 L1562.15 400.025 L1571.56 406.569 L1568.23 395.609 L1577.36 388.681 L1565.91 388.441 L1562.15 377.625 Z" fill="#00a9ad" fill-rule="evenodd" fill-opacity="1" stroke="#000000" stroke-opacity="1" stroke-width="3.2"/>
<path clip-path="url(#clip992)" d="M1043.37 555.816 L1039.61 566.632 L1028.16 566.872 L1037.29 573.8 L1033.96 584.76 L1043.37 578.216 L1052.78 584.76 L1049.45 573.8 L1058.59 566.872 L1047.13 566.632 L1043.37 555.816 Z" fill="#00a9ad" fill-rule="evenodd" fill-opacity="1" stroke="#000000" stroke-opacity="1" stroke-width="3.2"/>
<path clip-path="url(#clip992)" d="M640.978 606.361 L637.218 617.177 L625.762 617.417 L634.898 624.345 L631.57 635.305 L640.978 628.761 L650.386 635.305 L647.058 624.345 L656.194 617.417 L644.738 617.177 L640.978 606.361 Z" fill="#00a9ad" fill-rule="evenodd" fill-opacity="1" stroke="#000000" stroke-opacity="1" stroke-width="3.2"/>
<path clip-path="url(#clip992)" d="M312.198 669.516 L308.438 680.332 L296.982 680.572 L306.118 687.5 L302.79 698.46 L312.198 691.916 L321.606 698.46 L318.278 687.5 L327.414 680.572 L315.958 680.332 L312.198 669.516 Z" fill="#00a9ad" fill-rule="evenodd" fill-opacity="1" stroke="#000000" stroke-opacity="1" stroke-width="3.2"/>
<polyline clip-path="url(#clip992)" style="stroke:#ed5d92; stroke-linecap:butt; stroke-linejoin:round; stroke-width:4; stroke-opacity:1; fill:none" points="
  2293.32,351.628 1562.15,686.614 1043.37,929.445 640.978,1121.41 312.198,1279.65 
  "/>
<path clip-path="url(#clip992)" d="M2293.32 335.628 L2289.56 346.444 L2278.11 346.684 L2287.24 353.612 L2283.91 364.572 L2293.32 358.028 L2302.73 364.572 L2299.4 353.612 L2308.54 346.684 L2297.08 346.444 L2293.32 335.628 Z" fill="#c68125" fill-rule="evenodd" fill-opacity="1" stroke="#000000" stroke-opacity="1" stroke-width="3.2"/>
<path clip-path="url(#clip992)" d="M1562.15 670.614 L1558.39 681.43 L1546.93 681.67 L1556.07 688.598 L1552.74 699.558 L1562.15 693.014 L1571.56 699.558 L1568.23 688.598 L1577.36 681.67 L1565.91 681.43 L1562.15 670.614 Z" fill="#c68125" fill-rule="evenodd" fill-opacity="1" stroke="#000000" stroke-opacity="1" stroke-width="3.2"/>
<path clip-path="url(#clip992)" d="M1043.37 913.445 L1039.61 924.261 L1028.16 924.501 L1037.29 931.429 L1033.96 942.389 L1043.37 935.845 L1052.78 942.389 L1049.45 931.429 L1058.59 924.501 L1047.13 924.261 L1043.37 913.445 Z" fill="#c68125" fill-rule="evenodd" fill-opacity="1" stroke="#000000" stroke-opacity="1" stroke-width="3.2"/>
<path clip-path="url(#clip992)" d="M640.978 1105.41 L637.218 1116.22 L625.762 1116.46 L634.898 1123.39 L631.57 1134.35 L640.978 1127.81 L650.386 1134.35 L647.058 1123.39 L656.194 1116.46 L644.738 1116.22 L640.978 1105.41 Z" fill="#c68125" fill-rule="evenodd" fill-opacity="1" stroke="#000000" stroke-opacity="1" stroke-width="3.2"/>
<path clip-path="url(#clip992)" d="M312.198 1263.65 L308.438 1274.47 L296.982 1274.71 L306.118 1281.64 L302.79 1292.6 L312.198 1286.05 L321.606 1292.6 L318.278 1281.64 L327.414 1274.71 L315.958 1274.47 L312.198 1263.65 Z" fill="#c68125" fill-rule="evenodd" fill-opacity="1" stroke="#000000" stroke-opacity="1" stroke-width="3.2"/>
<polyline clip-path="url(#clip992)" style="stroke:#00a98d; stroke-linecap:butt; stroke-linejoin:round; stroke-width:4; stroke-opacity:1; fill:none" stroke-dasharray="16, 10" points="
  2293.32,126.09 1562.15,427.233 1043.37,645.975 640.978,778.799 312.198,893.417 
  "/>
<circle clip-path="url(#clip992)" cx="2293.32" cy="126.09" r="14" fill="#8e971d" fill-rule="evenodd" fill-opacity="1" stroke="#000000" stroke-opacity="1" stroke-width="3.2"/>
<circle clip-path="url(#clip992)" cx="1562.15" cy="427.233" r="14" fill="#8e971d" fill-rule="evenodd" fill-opacity="1" stroke="#000000" stroke-opacity="1" stroke-width="3.2"/>
<circle clip-path="url(#clip992)" cx="1043.37" cy="645.975" r="14" fill="#8e971d" fill-rule="evenodd" fill-opacity="1" stroke="#000000" stroke-opacity="1" stroke-width="3.2"/>
<circle clip-path="url(#clip992)" cx="640.978" cy="778.799" r="14" fill="#8e971d" fill-rule="evenodd" fill-opacity="1" stroke="#000000" stroke-opacity="1" stroke-width="3.2"/>
<circle clip-path="url(#clip992)" cx="312.198" cy="893.417" r="14" fill="#8e971d" fill-rule="evenodd" fill-opacity="1" stroke="#000000" stroke-opacity="1" stroke-width="3.2"/>
<polyline clip-path="url(#clip992)" style="stroke:#00a8cb; stroke-linecap:butt; stroke-linejoin:round; stroke-width:4; stroke-opacity:1; fill:none" points="
  2293.32,363.752 1562.15,703.383 1043.37,948.017 640.978,1140.99 312.198,1298.68 
  "/>
<circle clip-path="url(#clip992)" cx="2293.32" cy="363.752" r="14" fill="#9b7fe8" fill-rule="evenodd" fill-opacity="1" stroke="#000000" stroke-opacity="1" stroke-width="3.2"/>
<circle clip-path="url(#clip992)" cx="1562.15" cy="703.383" r="14" fill="#9b7fe8" fill-rule="evenodd" fill-opacity="1" stroke="#000000" stroke-opacity="1" stroke-width="3.2"/>
<circle clip-path="url(#clip992)" cx="1043.37" cy="948.017" r="14" fill="#9b7fe8" fill-rule="evenodd" fill-opacity="1" stroke="#000000" stroke-opacity="1" stroke-width="3.2"/>
<circle clip-path="url(#clip992)" cx="640.978" cy="1140.99" r="14" fill="#9b7fe8" fill-rule="evenodd" fill-opacity="1" stroke="#000000" stroke-opacity="1" stroke-width="3.2"/>
<circle clip-path="url(#clip992)" cx="312.198" cy="1298.68" r="14" fill="#9b7fe8" fill-rule="evenodd" fill-opacity="1" stroke="#000000" stroke-opacity="1" stroke-width="3.2"/>
<polyline clip-path="url(#clip992)" style="stroke:#608cf6; stroke-linecap:butt; stroke-linejoin:round; stroke-width:4; stroke-opacity:1; fill:none" stroke-dasharray="16, 10" points="
  2293.32,275.839 1562.15,503.205 1043.37,679.052 640.978,816.582 312.198,933.544 
  "/>
<path clip-path="url(#clip992)" d="M2293.32 291.839 L2279.47 283.839 L2279.47 267.839 L2293.32 259.839 L2307.18 267.839 L2307.18 283.839 Z" fill="#f05f73" fill-rule="evenodd" fill-opacity="1" stroke="#000000" stroke-opacity="1" stroke-width="3.2"/>
<path clip-path="url(#clip992)" d="M1562.15 519.205 L1548.29 511.205 L1548.29 495.205 L1562.15 487.205 L1576 495.205 L1576 511.205 Z" fill="#f05f73" fill-rule="evenodd" fill-opacity="1" stroke="#000000" stroke-opacity="1" stroke-width="3.2"/>
<path clip-path="url(#clip992)" d="M1043.37 695.052 L1029.52 687.052 L1029.52 671.052 L1043.37 663.052 L1057.23 671.052 L1057.23 687.052 Z" fill="#f05f73" fill-rule="evenodd" fill-opacity="1" stroke="#000000" stroke-opacity="1" stroke-width="3.2"/>
<path clip-path="url(#clip992)" d="M640.978 832.582 L627.122 824.582 L627.122 808.582 L640.978 800.582 L654.834 808.582 L654.834 824.582 Z" fill="#f05f73" fill-rule="evenodd" fill-opacity="1" stroke="#000000" stroke-opacity="1" stroke-width="3.2"/>
<path clip-path="url(#clip992)" d="M312.198 949.544 L298.342 941.544 L298.342 925.544 L312.198 917.544 L326.054 925.544 L326.054 941.544 Z" fill="#f05f73" fill-rule="evenodd" fill-opacity="1" stroke="#000000" stroke-opacity="1" stroke-width="3.2"/>
<polyline clip-path="url(#clip992)" style="stroke:#dd64b5; stroke-linecap:butt; stroke-linejoin:round; stroke-width:4; stroke-opacity:1; fill:none" points="
  2293.32,430.183 1562.15,771.429 1043.37,1018.01 640.978,1215.1 312.198,1372.3 
  "/>
<path clip-path="url(#clip992)" d="M2293.32 446.183 L2279.47 438.183 L2279.47 422.183 L2293.32 414.183 L2307.18 422.183 L2307.18 438.183 Z" fill="#6b9e32" fill-rule="evenodd" fill-opacity="1" stroke="#000000" stroke-opacity="1" stroke-width="3.2"/>
<path clip-path="url(#clip992)" d="M1562.15 787.429 L1548.29 779.429 L1548.29 763.429 L1562.15 755.429 L1576 763.429 L1576 779.429 Z" fill="#6b9e32" fill-rule="evenodd" fill-opacity="1" stroke="#000000" stroke-opacity="1" stroke-width="3.2"/>
<path clip-path="url(#clip992)" d="M1043.37 1034.01 L1029.52 1026.01 L1029.52 1010.01 L1043.37 1002.01 L1057.23 1010.01 L1057.23 1026.01 Z" fill="#6b9e32" fill-rule="evenodd" fill-opacity="1" stroke="#000000" stroke-opacity="1" stroke-width="3.2"/>
<path clip-path="url(#clip992)" d="M640.978 1231.1 L627.122 1223.1 L627.122 1207.1 L640.978 1199.1 L654.834 1207.1 L654.834 1223.1 Z" fill="#6b9e32" fill-rule="evenodd" fill-opacity="1" stroke="#000000" stroke-opacity="1" stroke-width="3.2"/>
<path clip-path="url(#clip992)" d="M312.198 1388.3 L298.342 1380.3 L298.342 1364.3 L312.198 1356.3 L326.054 1364.3 L326.054 1380.3 Z" fill="#6b9e32" fill-rule="evenodd" fill-opacity="1" stroke="#000000" stroke-opacity="1" stroke-width="3.2"/>
<path clip-path="url(#clip990)" d="
M1712.34 1365.44 L2282.76 1365.44 L2282.76 1002.56 L1712.34 1002.56  Z
  " fill="#ffffff" fill-rule="evenodd" fill-opacity="1"/>
<polyline clip-path="url(#clip990)" style="stroke:#000000; stroke-linecap:butt; stroke-linejoin:round; stroke-width:4; stroke-opacity:1; fill:none" points="
  1712.34,1365.44 2282.76,1365.44 2282.76,1002.56 1712.34,1002.56 1712.34,1365.44 
  "/>
<path clip-path="url(#clip990)" d="M1780.08 1028.8 L1780.08 1080 L1831.28 1080 L1831.28 1028.8 L1780.08 1028.8 Z" fill="#e26f46" fill-rule="evenodd" fill-opacity="1" stroke="#000000" stroke-opacity="1" stroke-width="5.12"/>
<path clip-path="url(#clip990)" d="M1919.36 1050.73 Q1920.95 1047.86 1923.17 1046.5 Q1925.4 1045.13 1928.41 1045.13 Q1932.46 1045.13 1934.66 1047.98 Q1936.86 1050.8 1936.86 1056.03 L1936.86 1071.68 L1932.57 1071.68 L1932.57 1056.17 Q1932.57 1052.45 1931.25 1050.64 Q1929.93 1048.83 1927.23 1048.83 Q1923.92 1048.83 1921.99 1051.03 Q1920.07 1053.23 1920.07 1057.03 L1920.07 1071.68 L1915.79 1071.68 L1915.79 1056.17 Q1915.79 1052.42 1914.47 1050.64 Q1913.15 1048.83 1910.4 1048.83 Q1907.13 1048.83 1905.21 1051.06 Q1903.29 1053.26 1903.29 1057.03 L1903.29 1071.68 L1899.01 1071.68 L1899.01 1045.76 L1903.29 1045.76 L1903.29 1049.78 Q1904.75 1047.4 1906.79 1046.27 Q1908.82 1045.13 1911.62 1045.13 Q1914.45 1045.13 1916.42 1046.57 Q1918.41 1048 1919.36 1050.73 Z" fill="#000000" fill-rule="evenodd" fill-opacity="1" /><path clip-path="url(#clip990)" d="M1960.98 1050.15 L1990.65 1050.15 L1990.65 1054.04 L1960.98 1054.04 L1960.98 1050.15 M1960.98 1059.6 L1990.65 1059.6 L1990.65 1063.53 L1960.98 1063.53 L1960.98 1059.6 Z" fill="#000000" fill-rule="evenodd" fill-opacity="1" /><path clip-path="url(#clip990)" d="M2036.76 1056.03 L2036.76 1071.68 L2032.5 1071.68 L2032.5 1056.17 Q2032.5 1052.49 2031.07 1050.66 Q2029.63 1048.83 2026.76 1048.83 Q2023.31 1048.83 2021.32 1051.03 Q2019.33 1053.23 2019.33 1057.03 L2019.33 1071.68 L2015.05 1071.68 L2015.05 1045.76 L2019.33 1045.76 L2019.33 1049.78 Q2020.86 1047.45 2022.92 1046.29 Q2025 1045.13 2027.71 1045.13 Q2032.18 1045.13 2034.47 1047.91 Q2036.76 1050.66 2036.76 1056.03 Z" fill="#000000" fill-rule="evenodd" fill-opacity="1" /><path clip-path="url(#clip990)" d="M2060.88 1050.15 L2090.56 1050.15 L2090.56 1054.04 L2060.88 1054.04 L2060.88 1050.15 M2060.88 1059.6 L2090.56 1059.6 L2090.56 1063.53 L2060.88 1063.53 L2060.88 1059.6 Z" fill="#000000" fill-rule="evenodd" fill-opacity="1" /><path clip-path="url(#clip990)" d="M2116.53 1067.75 L2124.17 1067.75 L2124.17 1041.38 L2115.86 1043.05 L2115.86 1038.79 L2124.12 1037.12 L2128.8 1037.12 L2128.8 1067.75 L2136.44 1067.75 L2136.44 1071.68 L2116.53 1071.68 L2116.53 1067.75 Z" fill="#000000" fill-rule="evenodd" fill-opacity="1" /><path clip-path="url(#clip990)" d="M1805.68 1080.64 L1799.66 1097.95 L1781.33 1098.33 L1795.95 1109.42 L1790.62 1126.95 L1805.68 1116.48 L1820.73 1126.95 L1815.4 1109.42 L1830.02 1098.33 L1811.69 1097.95 L1805.68 1080.64 Z" fill="#00a9ad" fill-rule="evenodd" fill-opacity="1" stroke="#000000" stroke-opacity="1" stroke-width="5.12"/>
<path clip-path="url(#clip990)" d="M1919.36 1102.57 Q1920.95 1099.7 1923.17 1098.34 Q1925.4 1096.97 1928.41 1096.97 Q1932.46 1096.97 1934.66 1099.82 Q1936.86 1102.64 1936.86 1107.87 L1936.86 1123.52 L1932.57 1123.52 L1932.57 1108.01 Q1932.57 1104.29 1931.25 1102.48 Q1929.93 1100.67 1927.23 1100.67 Q1923.92 1100.67 1921.99 1102.87 Q1920.07 1105.07 1920.07 1108.87 L1920.07 1123.52 L1915.79 1123.52 L1915.79 1108.01 Q1915.79 1104.26 1914.47 1102.48 Q1913.15 1100.67 1910.4 1100.67 Q1907.13 1100.67 1905.21 1102.9 Q1903.29 1105.1 1903.29 1108.87 L1903.29 1123.52 L1899.01 1123.52 L1899.01 1097.6 L1903.29 1097.6 L1903.29 1101.62 Q1904.75 1099.24 1906.79 1098.11 Q1908.82 1096.97 1911.62 1096.97 Q1914.45 1096.97 1916.42 1098.41 Q1918.41 1099.84 1919.36 1102.57 Z" fill="#000000" fill-rule="evenodd" fill-opacity="1" /><path clip-path="url(#clip990)" d="M1960.98 1101.99 L1990.65 1101.99 L1990.65 1105.88 L1960.98 1105.88 L1960.98 1101.99 M1960.98 1111.44 L1990.65 1111.44 L1990.65 1115.37 L1960.98 1115.37 L1960.98 1111.44 Z" fill="#000000" fill-rule="evenodd" fill-opacity="1" /><path clip-path="url(#clip990)" d="M2036.76 1107.87 L2036.76 1123.52 L2032.5 1123.52 L2032.5 1108.01 Q2032.5 1104.33 2031.07 1102.5 Q2029.63 1100.67 2026.76 1100.67 Q2023.31 1100.67 2021.32 1102.87 Q2019.33 1105.07 2019.33 1108.87 L2019.33 1123.52 L2015.05 1123.52 L2015.05 1097.6 L2019.33 1097.6 L2019.33 1101.62 Q2020.86 1099.29 2022.92 1098.13 Q2025 1096.97 2027.71 1096.97 Q2032.18 1096.97 2034.47 1099.75 Q2036.76 1102.5 2036.76 1107.87 Z" fill="#000000" fill-rule="evenodd" fill-opacity="1" /><path clip-path="url(#clip990)" d="M2060.88 1101.99 L2090.56 1101.99 L2090.56 1105.88 L2060.88 1105.88 L2060.88 1101.99 M2060.88 1111.44 L2090.56 1111.44 L2090.56 1115.37 L2060.88 1115.37 L2060.88 1111.44 Z" fill="#000000" fill-rule="evenodd" fill-opacity="1" /><path clip-path="url(#clip990)" d="M2119.75 1119.59 L2136.07 1119.59 L2136.07 1123.52 L2114.12 1123.52 L2114.12 1119.59 Q2116.78 1116.83 2121.37 1112.2 Q2125.97 1107.55 2127.16 1106.21 Q2129.4 1103.68 2130.28 1101.95 Q2131.18 1100.19 2131.18 1098.5 Q2131.18 1095.74 2129.24 1094.01 Q2127.32 1092.27 2124.22 1092.27 Q2122.02 1092.27 2119.56 1093.04 Q2117.13 1093.8 2114.35 1095.35 L2114.35 1090.63 Q2117.18 1089.49 2119.63 1088.92 Q2122.09 1088.34 2124.12 1088.34 Q2129.49 1088.34 2132.69 1091.02 Q2135.88 1093.71 2135.88 1098.2 Q2135.88 1100.33 2135.07 1102.25 Q2134.28 1104.15 2132.18 1106.74 Q2131.6 1107.41 2128.5 1110.63 Q2125.4 1113.82 2119.75 1119.59 Z" fill="#000000" fill-rule="evenodd" fill-opacity="1" /><circle clip-path="url(#clip990)" cx="1805.68" cy="1158.08" r="23" fill="#8e971d" fill-rule="evenodd" fill-opacity="1" stroke="#000000" stroke-opacity="1" stroke-width="5.12"/>
<path clip-path="url(#clip990)" d="M1919.36 1154.41 Q1920.95 1151.54 1923.17 1150.18 Q1925.4 1148.81 1928.41 1148.81 Q1932.46 1148.81 1934.66 1151.66 Q1936.86 1154.48 1936.86 1159.71 L1936.86 1175.36 L1932.57 1175.36 L1932.57 1159.85 Q1932.57 1156.13 1931.25 1154.32 Q1929.93 1152.51 1927.23 1152.51 Q1923.92 1152.51 1921.99 1154.71 Q1920.07 1156.91 1920.07 1160.71 L1920.07 1175.36 L1915.79 1175.36 L1915.79 1159.85 Q1915.79 1156.1 1914.47 1154.32 Q1913.15 1152.51 1910.4 1152.51 Q1907.13 1152.51 1905.21 1154.74 Q1903.29 1156.94 1903.29 1160.71 L1903.29 1175.36 L1899.01 1175.36 L1899.01 1149.44 L1903.29 1149.44 L1903.29 1153.46 Q1904.75 1151.08 1906.79 1149.95 Q1908.82 1148.81 1911.62 1148.81 Q1914.45 1148.81 1916.42 1150.25 Q1918.41 1151.68 1919.36 1154.41 Z" fill="#000000" fill-rule="evenodd" fill-opacity="1" /><path clip-path="url(#clip990)" d="M1960.98 1153.83 L1990.65 1153.83 L1990.65 1157.72 L1960.98 1157.72 L1960.98 1153.83 M1960.98 1163.28 L1990.65 1163.28 L1990.65 1167.21 L1960.98 1167.21 L1960.98 1163.28 Z" fill="#000000" fill-rule="evenodd" fill-opacity="1" /><path clip-path="url(#clip990)" d="M2036.76 1159.71 L2036.76 1175.36 L2032.5 1175.36 L2032.5 1159.85 Q2032.5 1156.17 2031.07 1154.34 Q2029.63 1152.51 2026.76 1152.51 Q2023.31 1152.51 2021.32 1154.71 Q2019.33 1156.91 2019.33 1160.71 L2019.33 1175.36 L2015.05 1175.36 L2015.05 1149.44 L2019.33 1149.44 L2019.33 1153.46 Q2020.86 1151.13 2022.92 1149.97 Q2025 1148.81 2027.71 1148.81 Q2032.18 1148.81 2034.47 1151.59 Q2036.76 1154.34 2036.76 1159.71 Z" fill="#000000" fill-rule="evenodd" fill-opacity="1" /><path clip-path="url(#clip990)" d="M2060.88 1153.83 L2090.56 1153.83 L2090.56 1157.72 L2060.88 1157.72 L2060.88 1153.83 M2060.88 1163.28 L2090.56 1163.28 L2090.56 1167.21 L2060.88 1167.21 L2060.88 1163.28 Z" fill="#000000" fill-rule="evenodd" fill-opacity="1" /><path clip-path="url(#clip990)" d="M2129.89 1156.73 Q2133.24 1157.44 2135.12 1159.71 Q2137.02 1161.98 2137.02 1165.32 Q2137.02 1170.43 2133.5 1173.23 Q2129.98 1176.03 2123.5 1176.03 Q2121.32 1176.03 2119.01 1175.59 Q2116.72 1175.18 2114.26 1174.32 L2114.26 1169.81 Q2116.21 1170.94 2118.52 1171.52 Q2120.84 1172.1 2123.36 1172.1 Q2127.76 1172.1 2130.05 1170.36 Q2132.36 1168.63 2132.36 1165.32 Q2132.36 1162.26 2130.21 1160.55 Q2128.08 1158.81 2124.26 1158.81 L2120.23 1158.81 L2120.23 1154.97 L2124.45 1154.97 Q2127.9 1154.97 2129.72 1153.6 Q2131.55 1152.21 2131.55 1149.62 Q2131.55 1146.96 2129.66 1145.55 Q2127.78 1144.11 2124.26 1144.11 Q2122.34 1144.11 2120.14 1144.53 Q2117.94 1144.95 2115.3 1145.82 L2115.3 1141.66 Q2117.97 1140.92 2120.28 1140.55 Q2122.62 1140.18 2124.68 1140.18 Q2130 1140.18 2133.1 1142.61 Q2136.21 1145.01 2136.21 1149.13 Q2136.21 1152.01 2134.56 1154 Q2132.92 1155.96 2129.89 1156.73 Z" fill="#000000" fill-rule="evenodd" fill-opacity="1" /><path clip-path="url(#clip990)" d="M1805.68 1235.52 L1783.51 1222.72 L1783.51 1197.12 L1805.68 1184.32 L1827.84 1197.12 L1827.84 1222.72 Z" fill="#f05f73" fill-rule="evenodd" fill-opacity="1" stroke="#000000" stroke-opacity="1" stroke-width="5.12"/>
<path clip-path="url(#clip990)" d="M1919.36 1206.25 Q1920.95 1203.38 1923.17 1202.02 Q1925.4 1200.65 1928.41 1200.65 Q1932.46 1200.65 1934.66 1203.5 Q1936.86 1206.32 1936.86 1211.55 L1936.86 1227.2 L1932.57 1227.2 L1932.57 1211.69 Q1932.57 1207.97 1931.25 1206.16 Q1929.93 1204.35 1927.23 1204.35 Q1923.92 1204.35 1921.99 1206.55 Q1920.07 1208.75 1920.07 1212.55 L1920.07 1227.2 L1915.79 1227.2 L1915.79 1211.69 Q1915.79 1207.94 1914.47 1206.16 Q1913.15 1204.35 1910.4 1204.35 Q1907.13 1204.35 1905.21 1206.58 Q1903.29 1208.78 1903.29 1212.55 L1903.29 1227.2 L1899.01 1227.2 L1899.01 1201.28 L1903.29 1201.28 L1903.29 1205.3 Q1904.75 1202.92 1906.79 1201.79 Q1908.82 1200.65 1911.62 1200.65 Q1914.45 1200.65 1916.42 1202.09 Q1918.41 1203.52 1919.36 1206.25 Z" fill="#000000" fill-rule="evenodd" fill-opacity="1" /><path clip-path="url(#clip990)" d="M1960.98 1205.67 L1990.65 1205.67 L1990.65 1209.56 L1960.98 1209.56 L1960.98 1205.67 M1960.98 1215.12 L1990.65 1215.12 L1990.65 1219.05 L1960.98 1219.05 L1960.98 1215.12 Z" fill="#000000" fill-rule="evenodd" fill-opacity="1" /><path clip-path="url(#clip990)" d="M2036.76 1211.55 L2036.76 1227.2 L2032.5 1227.2 L2032.5 1211.69 Q2032.5 1208.01 2031.07 1206.18 Q2029.63 1204.35 2026.76 1204.35 Q2023.31 1204.35 2021.32 1206.55 Q2019.33 1208.75 2019.33 1212.55 L2019.33 1227.2 L2015.05 1227.2 L2015.05 1201.28 L2019.33 1201.28 L2019.33 1205.3 Q2020.86 1202.97 2022.92 1201.81 Q2025 1200.65 2027.71 1200.65 Q2032.18 1200.65 2034.47 1203.43 Q2036.76 1206.18 2036.76 1211.55 Z" fill="#000000" fill-rule="evenodd" fill-opacity="1" /><path clip-path="url(#clip990)" d="M2060.88 1205.67 L2090.56 1205.67 L2090.56 1209.56 L2060.88 1209.56 L2060.88 1205.67 M2060.88 1215.12 L2090.56 1215.12 L2090.56 1219.05 L2060.88 1219.05 L2060.88 1215.12 Z" fill="#000000" fill-rule="evenodd" fill-opacity="1" /><path clip-path="url(#clip990)" d="M2128.57 1196.72 L2116.76 1215.16 L2128.57 1215.16 L2128.57 1196.72 M2127.34 1192.64 L2133.22 1192.64 L2133.22 1215.16 L2138.15 1215.16 L2138.15 1219.05 L2133.22 1219.05 L2133.22 1227.2 L2128.57 1227.2 L2128.57 1219.05 L2112.97 1219.05 L2112.97 1214.54 L2127.34 1192.64 Z" fill="#000000" fill-rule="evenodd" fill-opacity="1" /><polyline clip-path="url(#clip990)" style="stroke:#009af9; stroke-linecap:butt; stroke-linejoin:round; stroke-width:4; stroke-opacity:1; fill:none" stroke-dasharray="16, 10" points="
  1735.68,1261.76 1875.67,1261.76 
  "/>
<path clip-path="url(#clip990)" d="M1903.68 1248.32 L1903.68 1261.31 L1909.56 1261.31 Q1912.83 1261.31 1914.61 1259.62 Q1916.39 1257.93 1916.39 1254.81 Q1916.39 1251.7 1914.61 1250.01 Q1912.83 1248.32 1909.56 1248.32 L1903.68 1248.32 M1899.01 1244.48 L1909.56 1244.48 Q1915.37 1244.48 1918.34 1247.12 Q1921.32 1249.74 1921.32 1254.81 Q1921.32 1259.92 1918.34 1262.54 Q1915.37 1265.15 1909.56 1265.15 L1903.68 1265.15 L1903.68 1279.04 L1899.01 1279.04 L1899.01 1244.48 Z" fill="#000000" fill-rule="evenodd" fill-opacity="1" /><path clip-path="url(#clip990)" d="M1935.77 1256.1 Q1932.34 1256.1 1930.35 1258.79 Q1928.36 1261.45 1928.36 1266.1 Q1928.36 1270.75 1930.33 1273.44 Q1932.32 1276.1 1935.77 1276.1 Q1939.17 1276.1 1941.16 1273.42 Q1943.15 1270.73 1943.15 1266.1 Q1943.15 1261.5 1941.16 1258.81 Q1939.17 1256.1 1935.77 1256.1 M1935.77 1252.49 Q1941.32 1252.49 1944.49 1256.1 Q1947.67 1259.71 1947.67 1266.1 Q1947.67 1272.47 1944.49 1276.1 Q1941.32 1279.71 1935.77 1279.71 Q1930.19 1279.71 1927.02 1276.1 Q1923.87 1272.47 1923.87 1266.1 Q1923.87 1259.71 1927.02 1256.1 Q1930.19 1252.49 1935.77 1252.49 Z" fill="#000000" fill-rule="evenodd" fill-opacity="1" /><path clip-path="url(#clip990)" d="M1954.73 1243.02 L1958.98 1243.02 L1958.98 1279.04 L1954.73 1279.04 L1954.73 1243.02 Z" fill="#000000" fill-rule="evenodd" fill-opacity="1" /><path clip-path="url(#clip990)" d="M1978.68 1281.45 Q1976.88 1286.08 1975.17 1287.49 Q1973.45 1288.9 1970.58 1288.9 L1967.18 1288.9 L1967.18 1285.34 L1969.68 1285.34 Q1971.44 1285.34 1972.41 1284.5 Q1973.38 1283.67 1974.56 1280.57 L1975.33 1278.62 L1964.84 1253.12 L1969.36 1253.12 L1977.46 1273.39 L1985.56 1253.12 L1990.07 1253.12 L1978.68 1281.45 Z" fill="#000000" fill-rule="evenodd" fill-opacity="1" /><path clip-path="url(#clip990)" d="M2017.5 1263.39 L2017.5 1279.04 L2013.24 1279.04 L2013.24 1263.53 Q2013.24 1259.85 2011.81 1258.02 Q2010.37 1256.19 2007.5 1256.19 Q2004.05 1256.19 2002.06 1258.39 Q2000.07 1260.59 2000.07 1264.39 L2000.07 1279.04 L1995.79 1279.04 L1995.79 1243.02 L2000.07 1243.02 L2000.07 1257.14 Q2001.6 1254.81 2003.66 1253.65 Q2005.74 1252.49 2008.45 1252.49 Q2012.92 1252.49 2015.21 1255.27 Q2017.5 1258.02 2017.5 1263.39 Z" fill="#000000" fill-rule="evenodd" fill-opacity="1" /><path clip-path="url(#clip990)" d="M2037.78 1266.01 Q2032.62 1266.01 2030.63 1267.19 Q2028.64 1268.37 2028.64 1271.22 Q2028.64 1273.49 2030.12 1274.83 Q2031.62 1276.15 2034.19 1276.15 Q2037.73 1276.15 2039.86 1273.65 Q2042.02 1271.12 2042.02 1266.96 L2042.02 1266.01 L2037.78 1266.01 M2046.28 1264.25 L2046.28 1279.04 L2042.02 1279.04 L2042.02 1275.11 Q2040.56 1277.47 2038.38 1278.6 Q2036.21 1279.71 2033.06 1279.71 Q2029.08 1279.71 2026.72 1277.49 Q2024.38 1275.25 2024.38 1271.5 Q2024.38 1267.12 2027.29 1264.9 Q2030.23 1262.68 2036.04 1262.68 L2042.02 1262.68 L2042.02 1262.26 Q2042.02 1259.32 2040.07 1257.72 Q2038.15 1256.1 2034.66 1256.1 Q2032.43 1256.1 2030.33 1256.63 Q2028.22 1257.17 2026.28 1258.23 L2026.28 1254.3 Q2028.61 1253.39 2030.81 1252.95 Q2033.01 1252.49 2035.1 1252.49 Q2040.72 1252.49 2043.5 1255.41 Q2046.28 1258.32 2046.28 1264.25 Z" fill="#000000" fill-rule="evenodd" fill-opacity="1" /><path clip-path="url(#clip990)" d="M2070.07 1257.1 Q2069.35 1256.68 2068.5 1256.5 Q2067.66 1256.29 2066.65 1256.29 Q2063.04 1256.29 2061.09 1258.65 Q2059.17 1260.99 2059.17 1265.38 L2059.17 1279.04 L2054.89 1279.04 L2054.89 1253.12 L2059.17 1253.12 L2059.17 1257.14 Q2060.51 1254.78 2062.66 1253.65 Q2064.82 1252.49 2067.9 1252.49 Q2068.34 1252.49 2068.87 1252.56 Q2069.4 1252.61 2070.05 1252.72 L2070.07 1257.1 Z" fill="#000000" fill-rule="evenodd" fill-opacity="1" /><path clip-path="url(#clip990)" d="M2093.89 1258.09 Q2095.49 1255.22 2097.71 1253.86 Q2099.93 1252.49 2102.94 1252.49 Q2106.99 1252.49 2109.19 1255.34 Q2111.39 1258.16 2111.39 1263.39 L2111.39 1279.04 L2107.11 1279.04 L2107.11 1263.53 Q2107.11 1259.81 2105.79 1258 Q2104.47 1256.19 2101.76 1256.19 Q2098.45 1256.19 2096.53 1258.39 Q2094.61 1260.59 2094.61 1264.39 L2094.61 1279.04 L2090.33 1279.04 L2090.33 1263.53 Q2090.33 1259.78 2089.01 1258 Q2087.69 1256.19 2084.93 1256.19 Q2081.67 1256.19 2079.75 1258.42 Q2077.83 1260.62 2077.83 1264.39 L2077.83 1279.04 L2073.54 1279.04 L2073.54 1253.12 L2077.83 1253.12 L2077.83 1257.14 Q2079.28 1254.76 2081.32 1253.63 Q2083.36 1252.49 2086.16 1252.49 Q2088.98 1252.49 2090.95 1253.93 Q2092.94 1255.36 2093.89 1258.09 Z" fill="#000000" fill-rule="evenodd" fill-opacity="1" /><path clip-path="url(#clip990)" d="M2129.93 1256.1 Q2126.51 1256.1 2124.52 1258.79 Q2122.53 1261.45 2122.53 1266.1 Q2122.53 1270.75 2124.49 1273.44 Q2126.48 1276.1 2129.93 1276.1 Q2133.34 1276.1 2135.33 1273.42 Q2137.32 1270.73 2137.32 1266.1 Q2137.32 1261.5 2135.33 1258.81 Q2133.34 1256.1 2129.93 1256.1 M2129.93 1252.49 Q2135.49 1252.49 2138.66 1256.1 Q2141.83 1259.71 2141.83 1266.1 Q2141.83 1272.47 2138.66 1276.1 Q2135.49 1279.71 2129.93 1279.71 Q2124.35 1279.71 2121.18 1276.1 Q2118.03 1272.47 2118.03 1266.1 Q2118.03 1259.71 2121.18 1256.1 Q2124.35 1252.49 2129.93 1252.49 Z" fill="#000000" fill-rule="evenodd" fill-opacity="1" /><path clip-path="url(#clip990)" d="M2170.44 1263.39 L2170.44 1279.04 L2166.18 1279.04 L2166.18 1263.53 Q2166.18 1259.85 2164.75 1258.02 Q2163.31 1256.19 2160.44 1256.19 Q2156.99 1256.19 2155 1258.39 Q2153.01 1260.59 2153.01 1264.39 L2153.01 1279.04 L2148.73 1279.04 L2148.73 1253.12 L2153.01 1253.12 L2153.01 1257.14 Q2154.54 1254.81 2156.6 1253.65 Q2158.68 1252.49 2161.39 1252.49 Q2165.86 1252.49 2168.15 1255.27 Q2170.44 1258.02 2170.44 1263.39 Z" fill="#000000" fill-rule="evenodd" fill-opacity="1" /><path clip-path="url(#clip990)" d="M2178.94 1253.12 L2183.2 1253.12 L2183.2 1279.04 L2178.94 1279.04 L2178.94 1253.12 M2178.94 1243.02 L2183.2 1243.02 L2183.2 1248.42 L2178.94 1248.42 L2178.94 1243.02 Z" fill="#000000" fill-rule="evenodd" fill-opacity="1" /><path clip-path="url(#clip990)" d="M2210.77 1254.11 L2210.77 1258.09 Q2208.96 1257.1 2207.13 1256.61 Q2205.33 1256.1 2203.47 1256.1 Q2199.33 1256.1 2197.04 1258.74 Q2194.75 1261.36 2194.75 1266.1 Q2194.75 1270.85 2197.04 1273.49 Q2199.33 1276.1 2203.47 1276.1 Q2205.33 1276.1 2207.13 1275.62 Q2208.96 1275.11 2210.77 1274.11 L2210.77 1278.05 Q2208.98 1278.88 2207.06 1279.3 Q2205.16 1279.71 2203.01 1279.71 Q2197.15 1279.71 2193.71 1276.03 Q2190.26 1272.35 2190.26 1266.1 Q2190.26 1259.76 2193.73 1256.13 Q2197.22 1252.49 2203.29 1252.49 Q2205.26 1252.49 2207.13 1252.91 Q2209.01 1253.3 2210.77 1254.11 Z" fill="#000000" fill-rule="evenodd" fill-opacity="1" /><path clip-path="url(#clip990)" d="M2234.7 1253.88 L2234.7 1257.91 Q2232.9 1256.98 2230.95 1256.52 Q2229.01 1256.06 2226.92 1256.06 Q2223.75 1256.06 2222.15 1257.03 Q2220.58 1258 2220.58 1259.94 Q2220.58 1261.43 2221.71 1262.28 Q2222.85 1263.12 2226.27 1263.88 L2227.73 1264.2 Q2232.27 1265.18 2234.17 1266.96 Q2236.09 1268.72 2236.09 1271.89 Q2236.09 1275.5 2233.22 1277.61 Q2230.37 1279.71 2225.37 1279.71 Q2223.29 1279.71 2221.02 1279.3 Q2218.77 1278.9 2216.27 1278.09 L2216.27 1273.69 Q2218.64 1274.92 2220.93 1275.55 Q2223.22 1276.15 2225.46 1276.15 Q2228.47 1276.15 2230.09 1275.13 Q2231.71 1274.09 2231.71 1272.21 Q2231.71 1270.48 2230.53 1269.55 Q2229.38 1268.62 2225.42 1267.77 L2223.94 1267.42 Q2219.98 1266.59 2218.22 1264.87 Q2216.46 1263.14 2216.46 1260.13 Q2216.46 1256.47 2219.05 1254.48 Q2221.65 1252.49 2226.41 1252.49 Q2228.77 1252.49 2230.86 1252.84 Q2232.94 1253.19 2234.7 1253.88 Z" fill="#000000" fill-rule="evenodd" fill-opacity="1" /><polyline clip-path="url(#clip990)" style="stroke:#e26f46; stroke-linecap:butt; stroke-linejoin:round; stroke-width:4; stroke-opacity:1; fill:none" points="
  1735.68,1313.6 1875.67,1313.6 
  "/>
<path clip-path="url(#clip990)" d="M1899.01 1296.32 L1903.73 1296.32 L1911 1325.53 L1918.24 1296.32 L1923.5 1296.32 L1930.77 1325.53 L1938.01 1296.32 L1942.76 1296.32 L1934.08 1330.88 L1928.2 1330.88 L1920.91 1300.88 L1913.55 1330.88 L1907.67 1330.88 L1899.01 1296.32 Z" fill="#000000" fill-rule="evenodd" fill-opacity="1" /><path clip-path="url(#clip990)" d="M1968.17 1316.85 L1968.17 1318.94 L1948.59 1318.94 Q1948.87 1323.34 1951.23 1325.65 Q1953.61 1327.94 1957.85 1327.94 Q1960.3 1327.94 1962.6 1327.34 Q1964.91 1326.74 1967.18 1325.53 L1967.18 1329.56 Q1964.89 1330.53 1962.48 1331.04 Q1960.07 1331.55 1957.6 1331.55 Q1951.39 1331.55 1947.76 1327.94 Q1944.15 1324.33 1944.15 1318.17 Q1944.15 1311.81 1947.57 1308.08 Q1951.02 1304.33 1956.86 1304.33 Q1962.09 1304.33 1965.12 1307.71 Q1968.17 1311.07 1968.17 1316.85 M1963.92 1315.6 Q1963.87 1312.11 1961.95 1310.03 Q1960.05 1307.94 1956.9 1307.94 Q1953.34 1307.94 1951.18 1309.96 Q1949.05 1311.97 1948.73 1315.63 L1963.92 1315.6 Z" fill="#000000" fill-rule="evenodd" fill-opacity="1" /><path clip-path="url(#clip990)" d="M1996.72 1315.23 L1996.72 1330.88 L1992.46 1330.88 L1992.46 1315.37 Q1992.46 1311.69 1991.02 1309.86 Q1989.59 1308.03 1986.72 1308.03 Q1983.27 1308.03 1981.28 1310.23 Q1979.29 1312.43 1979.29 1316.23 L1979.29 1330.88 L1975 1330.88 L1975 1304.96 L1979.29 1304.96 L1979.29 1308.98 Q1980.81 1306.65 1982.87 1305.49 Q1984.96 1304.33 1987.67 1304.33 Q1992.13 1304.33 1994.42 1307.11 Q1996.72 1309.86 1996.72 1315.23 Z" fill="#000000" fill-rule="evenodd" fill-opacity="1" /><path clip-path="url(#clip990)" d="M2022.27 1308.89 L2022.27 1294.86 L2026.53 1294.86 L2026.53 1330.88 L2022.27 1330.88 L2022.27 1326.99 Q2020.93 1329.31 2018.87 1330.44 Q2016.83 1331.55 2013.96 1331.55 Q2009.26 1331.55 2006.3 1327.8 Q2003.36 1324.05 2003.36 1317.94 Q2003.36 1311.83 2006.3 1308.08 Q2009.26 1304.33 2013.96 1304.33 Q2016.83 1304.33 2018.87 1305.47 Q2020.93 1306.58 2022.27 1308.89 M2007.76 1317.94 Q2007.76 1322.64 2009.68 1325.33 Q2011.62 1327.99 2015 1327.99 Q2018.38 1327.99 2020.33 1325.33 Q2022.27 1322.64 2022.27 1317.94 Q2022.27 1313.24 2020.33 1310.58 Q2018.38 1307.9 2015 1307.9 Q2011.62 1307.9 2009.68 1310.58 Q2007.76 1313.24 2007.76 1317.94 Z" fill="#000000" fill-rule="evenodd" fill-opacity="1" /><path clip-path="url(#clip990)" d="M2035.3 1294.86 L2039.56 1294.86 L2039.56 1330.88 L2035.3 1330.88 L2035.3 1294.86 Z" fill="#000000" fill-rule="evenodd" fill-opacity="1" /><path clip-path="url(#clip990)" d="M2060.26 1317.85 Q2055.1 1317.85 2053.1 1319.03 Q2051.11 1320.21 2051.11 1323.06 Q2051.11 1325.33 2052.6 1326.67 Q2054.1 1327.99 2056.67 1327.99 Q2060.21 1327.99 2062.34 1325.49 Q2064.49 1322.96 2064.49 1318.8 L2064.49 1317.85 L2060.26 1317.85 M2068.75 1316.09 L2068.75 1330.88 L2064.49 1330.88 L2064.49 1326.95 Q2063.04 1329.31 2060.86 1330.44 Q2058.68 1331.55 2055.54 1331.55 Q2051.55 1331.55 2049.19 1329.33 Q2046.85 1327.09 2046.85 1323.34 Q2046.85 1318.96 2049.77 1316.74 Q2052.71 1314.52 2058.52 1314.52 L2064.49 1314.52 L2064.49 1314.1 Q2064.49 1311.16 2062.55 1309.56 Q2060.63 1307.94 2057.13 1307.94 Q2054.91 1307.94 2052.8 1308.47 Q2050.7 1309.01 2048.75 1310.07 L2048.75 1306.14 Q2051.09 1305.23 2053.29 1304.79 Q2055.49 1304.33 2057.57 1304.33 Q2063.2 1304.33 2065.97 1307.25 Q2068.75 1310.16 2068.75 1316.09 Z" fill="#000000" fill-rule="evenodd" fill-opacity="1" /><path clip-path="url(#clip990)" d="M2099.08 1315.23 L2099.08 1330.88 L2094.82 1330.88 L2094.82 1315.37 Q2094.82 1311.69 2093.38 1309.86 Q2091.95 1308.03 2089.08 1308.03 Q2085.63 1308.03 2083.64 1310.23 Q2081.65 1312.43 2081.65 1316.23 L2081.65 1330.88 L2077.36 1330.88 L2077.36 1304.96 L2081.65 1304.96 L2081.65 1308.98 Q2083.17 1306.65 2085.23 1305.49 Q2087.32 1304.33 2090.03 1304.33 Q2094.49 1304.33 2096.78 1307.11 Q2099.08 1309.86 2099.08 1315.23 Z" fill="#000000" fill-rule="evenodd" fill-opacity="1" /><path clip-path="url(#clip990)" d="M2124.63 1308.89 L2124.63 1294.86 L2128.89 1294.86 L2128.89 1330.88 L2124.63 1330.88 L2124.63 1326.99 Q2123.29 1329.31 2121.23 1330.44 Q2119.19 1331.55 2116.32 1331.55 Q2111.62 1331.55 2108.66 1327.8 Q2105.72 1324.05 2105.72 1317.94 Q2105.72 1311.83 2108.66 1308.08 Q2111.62 1304.33 2116.32 1304.33 Q2119.19 1304.33 2121.23 1305.47 Q2123.29 1306.58 2124.63 1308.89 M2110.12 1317.94 Q2110.12 1322.64 2112.04 1325.33 Q2113.98 1327.99 2117.36 1327.99 Q2120.74 1327.99 2122.69 1325.33 Q2124.63 1322.64 2124.63 1317.94 Q2124.63 1313.24 2122.69 1310.58 Q2120.74 1307.9 2117.36 1307.9 Q2113.98 1307.9 2112.04 1310.58 Q2110.12 1313.24 2110.12 1317.94 Z" fill="#000000" fill-rule="evenodd" fill-opacity="1" /><path clip-path="url(#clip990)" d="M2178.8 1298.98 L2178.8 1303.91 Q2176.44 1301.72 2173.75 1300.63 Q2171.09 1299.54 2168.08 1299.54 Q2162.15 1299.54 2159.01 1303.17 Q2155.86 1306.78 2155.86 1313.64 Q2155.86 1320.46 2159.01 1324.1 Q2162.15 1327.71 2168.08 1327.71 Q2171.09 1327.71 2173.75 1326.62 Q2176.44 1325.53 2178.8 1323.34 L2178.8 1328.22 Q2176.34 1329.89 2173.59 1330.72 Q2170.86 1331.55 2167.8 1331.55 Q2159.96 1331.55 2155.44 1326.76 Q2150.93 1321.95 2150.93 1313.64 Q2150.93 1305.3 2155.44 1300.51 Q2159.96 1295.7 2167.8 1295.7 Q2170.9 1295.7 2173.64 1296.53 Q2176.39 1297.34 2178.8 1298.98 Z" fill="#000000" fill-rule="evenodd" fill-opacity="1" /><path clip-path="url(#clip990)" d="M2196.44 1314.47 Q2193.1 1314.47 2191.18 1316.25 Q2189.28 1318.03 2189.28 1321.16 Q2189.28 1324.28 2191.18 1326.07 Q2193.1 1327.85 2196.44 1327.85 Q2199.77 1327.85 2201.69 1326.07 Q2203.61 1324.26 2203.61 1321.16 Q2203.61 1318.03 2201.69 1316.25 Q2199.79 1314.47 2196.44 1314.47 M2191.76 1312.48 Q2188.75 1311.74 2187.06 1309.68 Q2185.4 1307.62 2185.4 1304.65 Q2185.4 1300.51 2188.34 1298.1 Q2191.3 1295.7 2196.44 1295.7 Q2201.6 1295.7 2204.54 1298.1 Q2207.48 1300.51 2207.48 1304.65 Q2207.48 1307.62 2205.79 1309.68 Q2204.12 1311.74 2201.14 1312.48 Q2204.52 1313.27 2206.39 1315.56 Q2208.29 1317.85 2208.29 1321.16 Q2208.29 1326.18 2205.21 1328.87 Q2202.15 1331.55 2196.44 1331.55 Q2190.72 1331.55 2187.64 1328.87 Q2184.59 1326.18 2184.59 1321.16 Q2184.59 1317.85 2186.48 1315.56 Q2188.38 1313.27 2191.76 1312.48 M2190.05 1305.09 Q2190.05 1307.78 2191.71 1309.28 Q2193.4 1310.79 2196.44 1310.79 Q2199.45 1310.79 2201.14 1309.28 Q2202.85 1307.78 2202.85 1305.09 Q2202.85 1302.41 2201.14 1300.9 Q2199.45 1299.4 2196.44 1299.4 Q2193.4 1299.4 2191.71 1300.9 Q2190.05 1302.41 2190.05 1305.09 Z" fill="#000000" fill-rule="evenodd" fill-opacity="1" /></svg>
